<mxfile host="65bd71144e">
    <diagram id="7k9nhUk3vQBu-qB2R-Wo" name="Arquitetura em Camadas">
        <mxGraphModel dx="737" dy="722" grid="1" gridSize="10" guides="1" tooltips="1" connect="1" arrows="1" fold="1" page="1" pageScale="1" pageWidth="850" pageHeight="1100" math="0" shadow="0">
            <root>
                <mxCell id="0"/>
                <mxCell id="1" parent="0"/>
                <mxCell id="2" value="&lt;font color=&quot;#000000&quot;&gt;Ecommerce-node-api (back-end)&lt;/font&gt;" style="verticalAlign=top;align=left;spacingTop=8;spacingLeft=2;spacingRight=12;shape=cube;size=10;direction=south;fontStyle=4;html=1;strokeWidth=2;fillColor=#CCCCCC;" vertex="1" parent="1">
                    <mxGeometry x="80" y="130" width="650" height="390" as="geometry"/>
                </mxCell>
                <mxCell id="3" value="&lt;font color=&quot;#000000&quot;&gt;Ecommerce-web-app (front-end)&lt;/font&gt;" style="verticalAlign=top;align=left;spacingTop=8;spacingLeft=2;spacingRight=12;shape=cube;size=10;direction=south;fontStyle=4;html=1;strokeWidth=2;fillColor=#CCCCCC;" vertex="1" parent="1">
                    <mxGeometry x="80" y="20" width="650" height="90" as="geometry"/>
                </mxCell>
                <mxCell id="4" value="" style="shape=cylinder3;whiteSpace=wrap;html=1;boundedLbl=1;backgroundOutline=1;size=15;labelBackgroundColor=#18141D;strokeWidth=2;fontColor=#000000;fillColor=#CCCCCC;" vertex="1" parent="1">
                    <mxGeometry x="280" y="550" width="220" height="80" as="geometry"/>
                </mxCell>
                <mxCell id="5" value="&lt;b&gt;Database (Relacional)&lt;/b&gt;" style="text;html=1;strokeColor=none;fillColor=none;align=center;verticalAlign=middle;whiteSpace=wrap;rounded=0;labelBackgroundColor=none;strokeWidth=2;fontColor=#000000;" vertex="1" parent="1">
                    <mxGeometry x="330" y="590" width="133" height="30" as="geometry"/>
                </mxCell>
                <mxCell id="24" style="edgeStyle=none;html=1;exitX=0.05;exitY=1;exitDx=0;exitDy=0;exitPerimeter=0;entryX=0.05;entryY=0;entryDx=0;entryDy=0;entryPerimeter=0;dashed=1;strokeColor=#000000;strokeWidth=2;fontColor=#000000;" edge="1" parent="1" source="6" target="12">
                    <mxGeometry relative="1" as="geometry"/>
                </mxCell>
                <mxCell id="6" value="" style="rounded=1;whiteSpace=wrap;html=1;labelBackgroundColor=none;strokeWidth=2;fontColor=#000000;fillColor=#FFFF66;strokeColor=#808080;points=[[0,0,0,0,0],[0,0.25,0,0,0],[0,0.5,0,0,0],[0,0.75,0,0,0],[0,1,0,0,0],[0.05,1,0,0,0],[0.25,0,0,0,0],[0.5,0,0,0,0],[0.5,1,0,0,0],[0.75,0,0,0,0],[0.75,1,0,0,0],[1,0,0,0,0],[1,0.25,0,0,0],[1,0.5,0,0,0],[1,0.75,0,0,0],[1,1,0,0,0]];" vertex="1" parent="1">
                    <mxGeometry x="180" y="262" width="520" height="60" as="geometry"/>
                </mxCell>
                <mxCell id="7" value="&lt;b&gt;Camada de Aplicação&lt;/b&gt;" style="text;html=1;strokeColor=none;fillColor=none;align=center;verticalAlign=middle;whiteSpace=wrap;rounded=0;labelBackgroundColor=none;strokeWidth=2;fontColor=#000000;" vertex="1" parent="1">
                    <mxGeometry x="190" y="277" width="140" height="30" as="geometry"/>
                </mxCell>
                <mxCell id="21" style="edgeStyle=none;html=1;exitX=0.07;exitY=1;exitDx=0;exitDy=0;exitPerimeter=0;entryX=0;entryY=0.25;entryDx=0;entryDy=0;fontColor=#000000;dashed=1;strokeWidth=2;strokeColor=#000000;" edge="1" parent="1" source="8" target="6">
                    <mxGeometry relative="1" as="geometry">
                        <Array as="points">
                            <mxPoint x="142" y="277"/>
                        </Array>
                    </mxGeometry>
                </mxCell>
                <mxCell id="22" style="edgeStyle=none;html=1;exitX=0.04;exitY=1;exitDx=0;exitDy=0;exitPerimeter=0;entryX=0;entryY=0.25;entryDx=0;entryDy=0;dashed=1;strokeColor=#000000;strokeWidth=2;fontColor=#000000;" edge="1" parent="1" source="8" target="12">
                    <mxGeometry relative="1" as="geometry">
                        <Array as="points">
                            <mxPoint x="124" y="365"/>
                        </Array>
                    </mxGeometry>
                </mxCell>
                <mxCell id="8" value="" style="rounded=1;whiteSpace=wrap;html=1;labelBackgroundColor=none;strokeWidth=2;fontColor=#000000;fillColor=#66B2FF;strokeColor=#808080;points=[[0,0,0,0,0],[0,0.25,0,0,0],[0,0.5,0,0,0],[0,0.75,0,0,0],[0,1,0,0,0],[0.04,1,0,0,0],[0.07,1,0,0,0],[0.25,0,0,0,0],[0.5,0,0,0,0],[0.75,0,0,0,0],[0.75,1,0,0,0],[1,0,0,0,0],[1,0.25,0,0,0],[1,0.5,0,0,0],[1,0.75,0,0,0],[1,1,0,0,0]];" vertex="1" parent="1">
                    <mxGeometry x="100" y="170" width="600" height="60" as="geometry"/>
                </mxCell>
                <mxCell id="9" value="&lt;b&gt;Camada de Apresentação&lt;/b&gt;" style="text;html=1;strokeColor=none;fillColor=none;align=center;verticalAlign=middle;whiteSpace=wrap;rounded=0;labelBackgroundColor=none;strokeWidth=2;fontColor=#000000;" vertex="1" parent="1">
                    <mxGeometry x="108" y="168" width="150" height="35" as="geometry"/>
                </mxCell>
                <mxCell id="10" value="" style="rounded=1;whiteSpace=wrap;html=1;labelBackgroundColor=none;strokeWidth=2;fontColor=#000000;fillColor=#FF66B3;strokeColor=#808080;" vertex="1" parent="1">
                    <mxGeometry x="100" y="60" width="600" height="40" as="geometry"/>
                </mxCell>
                <mxCell id="11" value="&lt;b&gt;Interface de Usuário&lt;/b&gt;" style="text;html=1;strokeColor=none;fillColor=none;align=center;verticalAlign=middle;whiteSpace=wrap;rounded=0;labelBackgroundColor=none;strokeWidth=2;fontColor=#000000;" vertex="1" parent="1">
                    <mxGeometry x="100" y="62.5" width="150" height="35" as="geometry"/>
                </mxCell>
                <mxCell id="12" value="" style="rounded=1;whiteSpace=wrap;html=1;labelBackgroundColor=none;strokeWidth=2;fontColor=#000000;fillColor=#FF6666;strokeColor=#808080;points=[[0,0,0,0,0],[0,0.25,0,0,0],[0,0.5,0,0,0],[0,0.75,0,0,0],[0,1,0,0,0],[0.05,0,0,0,0],[0.06,1,0,0,0],[0.5,0,0,0,0],[0.5,1,0,0,0],[0.75,0,0,0,0],[0.75,1,0,0,0],[1,0,0,0,0],[1,0.25,0,0,0],[1,0.5,0,0,0],[1,0.75,0,0,0],[1,1,0,0,0]];" vertex="1" parent="1">
                    <mxGeometry x="180" y="350" width="520" height="60" as="geometry"/>
                </mxCell>
                <mxCell id="13" value="&lt;b&gt;Camada de Domínio&lt;/b&gt;" style="text;html=1;strokeColor=none;fillColor=none;align=center;verticalAlign=middle;whiteSpace=wrap;rounded=0;labelBackgroundColor=none;strokeWidth=2;fontColor=#000000;" vertex="1" parent="1">
                    <mxGeometry x="190" y="355" width="140" height="30" as="geometry"/>
                </mxCell>
                <mxCell id="25" style="edgeStyle=none;html=1;exitX=0.06;exitY=0;exitDx=0;exitDy=0;exitPerimeter=0;entryX=0;entryY=0.5;entryDx=0;entryDy=0;entryPerimeter=0;dashed=1;strokeColor=#000000;strokeWidth=2;fontColor=#000000;" edge="1" parent="1" source="14" target="6">
                    <mxGeometry relative="1" as="geometry">
                        <Array as="points">
                            <mxPoint x="136" y="292"/>
                        </Array>
                    </mxGeometry>
                </mxCell>
                <mxCell id="33" style="edgeStyle=none;html=1;exitX=0.18;exitY=0;exitDx=0;exitDy=0;exitPerimeter=0;entryX=0.06;entryY=1;entryDx=0;entryDy=0;entryPerimeter=0;dashed=1;strokeColor=#000000;strokeWidth=2;fontColor=#000000;" edge="1" parent="1" source="14" target="12">
                    <mxGeometry relative="1" as="geometry"/>
                </mxCell>
                <mxCell id="14" value="" style="rounded=1;whiteSpace=wrap;html=1;labelBackgroundColor=none;strokeWidth=2;fontColor=#000000;fillColor=#66FFB3;strokeColor=#808080;points=[[0,0,0,0,0],[0,0.25,0,0,0],[0,0.5,0,0,0],[0,0.75,0,0,0],[0,1,0,0,0],[0.06,0,0,0,0],[0.18,0,0,0,0],[0.25,1,0,0,0],[0.5,1,0,0,0],[0.75,0,0,0,0],[0.75,1,0,0,0],[1,0,0,0,0],[1,0.25,0,0,0],[1,0.5,0,0,0],[1,0.75,0,0,0],[1,1,0,0,0]];" vertex="1" parent="1">
                    <mxGeometry x="100" y="440" width="600" height="60" as="geometry"/>
                </mxCell>
                <mxCell id="15" value="&lt;b&gt;Camada de Infraestrutura&lt;/b&gt;" style="text;html=1;strokeColor=none;fillColor=none;align=center;verticalAlign=middle;whiteSpace=wrap;rounded=0;labelBackgroundColor=none;strokeWidth=2;fontColor=#000000;labelBorderColor=none;" vertex="1" parent="1">
                    <mxGeometry x="106" y="444.5" width="150" height="35" as="geometry"/>
                </mxCell>
                <mxCell id="16" value="&lt;b&gt;+ Abstrata&lt;/b&gt;" style="text;html=1;strokeColor=none;fillColor=none;align=center;verticalAlign=middle;whiteSpace=wrap;rounded=0;labelBackgroundColor=none;strokeWidth=2;fontColor=#000000;" vertex="1" parent="1">
                    <mxGeometry x="163" y="375" width="140" height="30" as="geometry"/>
                </mxCell>
                <mxCell id="17" value="&lt;b&gt;Menos Abstrata&lt;/b&gt;" style="text;html=1;strokeColor=none;fillColor=none;align=center;verticalAlign=middle;whiteSpace=wrap;rounded=0;labelBackgroundColor=none;strokeWidth=2;fontColor=#000000;" vertex="1" parent="1">
                    <mxGeometry x="80" y="465" width="150" height="35" as="geometry"/>
                </mxCell>
                <mxCell id="18" value="&lt;b&gt;Menos Abstrata&lt;/b&gt;" style="text;html=1;strokeColor=none;fillColor=none;align=center;verticalAlign=middle;whiteSpace=wrap;rounded=0;labelBackgroundColor=none;strokeWidth=2;fontColor=#000000;" vertex="1" parent="1">
                    <mxGeometry x="83" y="185" width="150" height="35" as="geometry"/>
                </mxCell>
                <mxCell id="34" value="" style="curved=1;endArrow=classic;html=1;strokeColor=#3333FF;strokeWidth=2;fontColor=#000000;entryX=0.026;entryY=0.538;entryDx=0;entryDy=0;entryPerimeter=0;" edge="1" parent="1">
                    <mxGeometry width="50" height="50" relative="1" as="geometry">
                        <mxPoint x="421" y="143" as="sourcePoint"/>
                        <mxPoint x="382.3000000000002" y="143.1400000000001" as="targetPoint"/>
                        <Array as="points">
                            <mxPoint x="421" y="403"/>
                            <mxPoint x="382" y="593"/>
                        </Array>
                    </mxGeometry>
                </mxCell>
            </root>
        </mxGraphModel>
    </diagram>
</mxfile>